<svg width="200" height="40" viewBox="0 0 200 40" fill="none" xmlns="http://www.w3.org/2000/svg">
<mask id="mask0_5021_7737" style="mask-type:luminance" maskUnits="userSpaceOnUse" x="0" y="1" width="200" height="38">
<path d="M200 1.19678H0V38.8036H200V1.19678Z" fill="white"/>
</mask>
<g mask="url(#mask0_5021_7737)">
<path d="M59.1373 9.99365C65.2567 9.99365 69.42 14.4959 69.42 21.0832V22.2513H54.1662C54.5067 24.7948 56.5873 26.9215 60.072 26.9215C61.9835 26.9215 64.2355 26.1705 65.5528 24.9193L67.9317 28.3385C65.8488 30.2142 62.6623 31.1312 59.4758 31.1312C53.2297 31.1312 48.5123 27.0045 48.5123 20.5417C48.5123 14.7054 52.8893 9.99365 59.1355 9.99365H59.1373ZM54.0817 18.666H64.195C64.0682 16.749 62.7085 14.2053 59.1393 14.2053C55.7817 14.2053 54.3373 16.6659 54.0835 18.666H54.0817Z" fill="#06003B"/>
<path d="M82.6367 9.99365C88.756 9.99365 92.9193 14.4959 92.9193 21.0832V22.2513H77.6655C78.006 24.7948 80.0867 26.9215 83.5713 26.9215C85.4828 26.9215 87.7348 26.1705 89.0522 24.9193L91.431 28.3385C89.3483 30.2142 86.1617 31.1312 82.9752 31.1312C76.729 31.1312 72.0117 27.0045 72.0117 20.5417C72.0117 14.7054 76.3887 9.99365 82.6348 9.99365H82.6367ZM77.581 18.666H87.6943C87.5675 16.749 86.2078 14.2053 82.6387 14.2053C79.281 14.2053 77.8367 16.6659 77.5828 18.666H77.581Z" fill="#06003B"/>
<path d="M98.8245 31.9653C100.482 33.7578 102.649 34.4673 105.24 34.4673C107.83 34.4673 110.892 33.3408 110.892 29.3802V27.3365C109.276 29.3387 107.067 30.5048 104.561 30.5048C99.4188 30.5048 95.511 26.961 95.511 20.2492C95.511 13.5373 99.3783 9.99365 104.561 9.99365C107.026 9.99365 109.234 11.0353 110.892 13.0788V10.4937H116.33V29.2557C116.33 36.926 110.296 38.8035 105.24 38.8035C101.713 38.8035 98.9515 38.011 96.4015 35.8013L98.8227 31.9653H98.8245ZM110.892 16.998C109.999 15.6639 108.046 14.7054 106.261 14.7054C103.201 14.7054 101.076 16.7905 101.076 20.2512C101.076 23.7118 103.201 25.7968 106.261 25.7968C108.046 25.7968 109.999 24.7967 110.892 23.5042V16.9998V16.998Z" fill="#06003B"/>
<path d="M134.008 30.6312V28.5462C132.606 30.1727 130.183 31.1312 127.506 31.1312C124.235 31.1312 120.368 28.9632 120.368 24.4608C120.368 19.9587 124.235 18.0397 127.506 18.0397C130.225 18.0397 132.649 18.8737 134.008 20.5002V17.7075C134.008 15.6639 132.224 14.3299 129.504 14.3299C127.295 14.3299 125.254 15.1224 123.514 16.7055L121.474 13.1618C123.981 10.9937 127.21 9.99365 130.439 9.99365C135.112 9.99365 139.404 11.8278 139.404 17.6225V30.6312H134.008ZM134.008 23.2928C133.116 22.1248 131.416 21.5418 129.674 21.5418C127.549 21.5418 125.806 22.6683 125.806 24.5853C125.806 26.5025 127.549 27.546 129.674 27.546C131.416 27.546 133.116 26.963 134.008 25.795V23.2928Z" fill="#06003B"/>
<path d="M144.759 30.6315V1.64038H150.155V30.6333H144.759V30.6315Z" fill="#06003B"/>
<path d="M154.958 4.36496C154.958 2.61388 156.444 1.19678 158.186 1.19678C159.929 1.19678 161.415 2.61388 161.415 4.36496C161.415 6.11605 159.971 7.53315 158.186 7.53315C156.402 7.53315 154.958 6.11605 154.958 4.36496ZM155.51 30.6313V10.4938H160.906V30.6313H155.51Z" fill="#06003B"/>
<path d="M167.323 25.6289V15.1224H163.922V10.4937H167.323V4.9895H172.762V10.4937H176.925V15.1224H172.762V24.2118C172.762 25.4629 173.442 26.4214 174.63 26.4214C175.438 26.4214 176.203 26.1289 176.5 25.8384L177.648 29.8406C176.84 30.5501 175.395 31.1331 173.143 31.1331C169.363 31.1331 167.323 29.2161 167.323 25.6289Z" fill="#06003B"/>
<path d="M180.71 33.7598C181.177 33.9673 181.9 34.0938 182.41 34.0938C183.812 34.0938 184.747 33.7182 185.255 32.6352L186.022 30.9255L177.692 10.4956H183.472L188.825 24.5043L194.178 10.4956H200L190.353 33.9277C188.825 37.7223 186.103 38.7225 182.578 38.8055C181.942 38.8055 180.58 38.6808 179.902 38.513L180.71 33.7598Z" fill="#06003B"/>
<path d="M36.0512 25.8024L36.1665 1.60417L30.3953 1.57397L30.28 26.4666H30.2877L30.28 26.4684L32.6433 28.9177L34.6818 30.8971L47.0877 30.9612L47.1145 25.8609L36.0512 25.8024Z" fill="#06003B"/>
<path d="M0 1.36646L0.251923 31.0877L6.83462 14.0052L0 1.36646Z" fill="#EF991B"/>
<path d="M29.9847 31.1689L0 1.36646L16.0115 30.9594L29.9847 31.1689Z" fill="#F26966"/>
<path d="M0.214844 31.1688H29.9957L3.6283 22.3267L0.214844 31.1688Z" fill="#7530E2"/>
<path d="M0 1.36646L24.1827 29.2216L29.9942 31.1689L0 1.36646Z" fill="#FF837C"/>
<path d="M0.213462 31.1689L2.825 6.51782L0 1.36646L0.213462 31.1689Z" fill="#FFAD26"/>
<path d="M0.214844 31.1688H29.9957L1.46869 27.9741L0.214844 31.1688Z" fill="#903FF9"/>
<path d="M0 1.36646L13.05 25.4872L18.3077 27.2498L0 1.36646Z" fill="#DD4E4E"/>
<path d="M3.62604 22.3267L2.56836 25.0627L29.9933 31.1688L3.62604 22.3267Z" fill="#5A1FCC"/>
<path d="M6.836 14.0053L4.97447 10.5579L0.214844 31.169L6.836 14.0053Z" fill="#D88212"/>
</g>
</svg>
